HIERARCHY
ROOT link
{
	OFFSET 0.000000 0.000000 0.000000
	CHANNELS 6 Xposition Yposition Zposition Xrotation Yrotation Zrotation
	JOINT joint2
	{
		OFFSET 7.910163 -29.647213 0.000000
		CHANNELS 3 Xrotation Yrotation Zrotation
		JOINT joint3
		{
			OFFSET -0.765209 -29.490231 -4.487917
			CHANNELS 3 Xrotation Yrotation Zrotation
			JOINT joint4
			{
				OFFSET 11.876042 -21.527245 -54.149216
				CHANNELS 3 Xrotation Yrotation Zrotation
				JOINT joint4a
				{
					OFFSET 0.611683 -24.803169 -7.433304
					CHANNELS 3 Xrotation Yrotation Zrotation
					JOINT joint4a1
					{
						OFFSET -0.008932 -49.433296 11.898338
						CHANNELS 3 Xrotation Yrotation Zrotation
						JOINT joint4a2
						{
							OFFSET -0.002558 -62.577881 -7.660591
							CHANNELS 3 Xrotation Yrotation Zrotation
							JOINT joint4a3
							{
								OFFSET -1.566000 -54.422394 -17.650642
								CHANNELS 3 Xrotation Yrotation Zrotation
								End Site
								{
									OFFSET -0.038080 0.762085 0.000000
								}
							}
						}
					}
				}
			}
			JOINT joint5
			{
				OFFSET 31.862122 -28.738518 -23.948040
				CHANNELS 3 Xrotation Yrotation Zrotation
				JOINT joint5a
				{
					OFFSET 1.172619 -50.284882 -0.229141
					CHANNELS 3 Xrotation Yrotation Zrotation
					JOINT joint5a1
					{
						OFFSET -32.693325 -61.097061 14.216507
						CHANNELS 3 Xrotation Yrotation Zrotation
						JOINT joint5a2
						{
							OFFSET -11.011783 -43.563400 4.224576
							CHANNELS 3 Xrotation Yrotation Zrotation
							JOINT joint5a3
							{
								OFFSET 7.453790 -51.190231 -2.900403
								CHANNELS 3 Xrotation Yrotation Zrotation
								End Site
								{
									OFFSET 0.000000 0.763031 0.000000
								}
							}
						}
					}
				}
			}
			JOINT joint6
			{
				OFFSET 10.613761 -31.405396 -27.997583
				CHANNELS 3 Xrotation Yrotation Zrotation
				JOINT joint6a
				{
					OFFSET -0.361006 -48.264809 6.695219
					CHANNELS 3 Xrotation Yrotation Zrotation
					JOINT joint6a1
					{
						OFFSET 0.162048 -40.063477 -9.586878
						CHANNELS 3 Xrotation Yrotation Zrotation
						End Site
						{
							OFFSET 0.000000 0.763031 0.000000
						}
					}
				}
			}
			JOINT joint7
			{
				OFFSET -9.634539 -29.923943 -19.639193
				CHANNELS 3 Xrotation Yrotation Zrotation
				JOINT joint7a
				{
					OFFSET -5.669586 -39.397995 -1.828802
					CHANNELS 3 Xrotation Yrotation Zrotation
					JOINT joint7a1
					{
						OFFSET 15.224179 -38.845001 2.893606
						CHANNELS 3 Xrotation Yrotation Zrotation
						JOINT joint7a2
						{
							OFFSET -1.616074 -49.579575 0.150684
							CHANNELS 3 Xrotation Yrotation Zrotation
							JOINT joint7a3
							{
								OFFSET 24.514688 -34.383972 3.975182
								CHANNELS 3 Xrotation Yrotation Zrotation
								End Site
								{
									OFFSET 0.000000 0.763031 0.000000
								}
							}
						}
					}
				}
			}
			JOINT joint8
			{
				OFFSET 23.714115 -17.598518 20.753933
				CHANNELS 3 Xrotation Yrotation Zrotation
				JOINT joint8a
				{
					OFFSET -4.934410 -73.692993 -6.832832
					CHANNELS 3 Xrotation Yrotation Zrotation
					JOINT joint8a1
					{
						OFFSET -6.593788 -52.225082 -9.382070
						CHANNELS 3 Xrotation Yrotation Zrotation
						JOINT joint8a2
						{
							OFFSET 3.179785 -61.204361 3.574597
							CHANNELS 3 Xrotation Yrotation Zrotation
							End Site
							{
								OFFSET 0.000000 0.763031 0.000000
							}
						}
					}
				}
			}
			JOINT joint9
			{
				OFFSET -23.074188 -2.172672 16.890882
				CHANNELS 3 Xrotation Yrotation Zrotation
				JOINT joint9a
				{
					OFFSET -6.647130 -36.311481 2.128831
					CHANNELS 3 Xrotation Yrotation Zrotation
					JOINT joint9a1
					{
						OFFSET 24.497482 -26.322739 -14.164160
						CHANNELS 3 Xrotation Yrotation Zrotation
						JOINT joint9a2
						{
							OFFSET 19.347090 -43.331848 -12.072575
							CHANNELS 3 Xrotation Yrotation Zrotation
							JOINT joint9a3
							{
								OFFSET 21.553276 -58.974991 -12.953063
								CHANNELS 3 Xrotation Yrotation Zrotation
								JOINT joint9a4
								{
									OFFSET 2.656143 -59.321213 -4.170506
									CHANNELS 3 Xrotation Yrotation Zrotation
									End Site
									{
										OFFSET 0.000000 0.763031 0.000000
									}
								}
							}
						}
					}
				}
			}
			JOINT joint10
			{
				OFFSET 6.606427 -24.280525 18.128487
				CHANNELS 3 Xrotation Yrotation Zrotation
				JOINT joint10a
				{
					OFFSET 8.306427 -39.993912 -11.374294
					CHANNELS 3 Xrotation Yrotation Zrotation
					JOINT joint10a1
					{
						OFFSET -10.676137 -45.734467 7.576664
						CHANNELS 3 Xrotation Yrotation Zrotation
						End Site
						{
							OFFSET 0.000000 0.763031 0.000000
						}
					}
				}
			}
		}
	}
}
MOTION
Frames: 11
Frame Time: 0.041667
0.000000 0.000000 0.000000 -0.000000 0.000000 -0.000000 -0.000000 0.000000 -0.000000 -0.000000 0.000000 -0.000000 -0.000000 0.000000 -0.000000 -0.000000 0.000000 -0.000000 -8.134109 0.000000 -0.000000 -8.197307 0.000000 -0.000000 -0.000000 0.000000 -0.003205 -0.000000 0.000000 -0.000000 8.452401 2.139837 14.111280 -0.000000 0.000000 0.000001 -0.000000 0.000000 0.000001 -0.000000 0.000000 0.000001 -0.000000 0.000000 -0.000000 -22.198622 0.000000 -0.000000 -0.000000 0.000000 -0.000000 -0.000000 0.000000 -0.000000 -0.000000 0.000000 -0.000000 -0.000000 0.000000 -0.000000 -0.000000 0.000000 -0.000000 -0.000000 0.000000 -0.000000 -0.000000 0.000000 -0.000000 -0.000000 0.000000 -0.000000 -0.000000 0.000000 -0.000000 -0.000000 0.000000 -0.000000 -0.000000 0.000000 -0.000000 -11.973355 4.924272 -29.673559 -0.000000 0.000000 11.953680 0.000001 -0.000001 0.000001 0.000001 -0.000001 0.000001 0.000001 -0.000001 0.000001 -43.681911 5.617932 -21.822239 0.000000 -0.000001 -0.000000 0.000000 -0.000001 -0.000000 
0.000000 0.000000 0.000000 -0.000000 0.000000 -0.000000 -0.055978 0.000000 -0.000000 0.000000 0.167877 -0.000000 0.000000 -0.000000 -0.000000 0.000000 -0.000000 -0.000000 -8.116520 0.000000 -0.000000 -8.453074 0.000000 -0.000000 0.000001 0.000000 -0.003205 0.000000 -0.000000 -0.000000 8.452339 2.140085 14.114839 -0.000000 -0.000000 0.251815 -0.000000 0.000000 -0.000001 -0.000000 0.000000 -0.000001 1.552291 0.266188 -1.262721 -22.198620 0.000000 -0.000000 -0.000001 0.000000 -0.000000 0.000000 -0.000000 -0.360219 -0.000000 -0.000000 -0.758883 -0.000000 -0.000000 0.000000 -0.000000 -0.000000 -0.727427 0.000000 0.000000 -0.000000 0.000000 -0.000000 -0.000000 0.000000 -0.000000 -0.000000 0.000000 -0.000000 -0.000000 0.000000 -0.000000 -0.000000 0.000000 -0.000000 -0.000000 -11.905226 5.032796 -29.419824 0.000000 0.000000 11.957231 -0.000000 -0.000000 -0.230786 -0.000001 -0.000000 0.216809 -0.000000 -0.000000 0.000001 -43.561724 5.916003 -21.536620 0.231179 -0.146323 0.287070 -0.000002 -0.000000 0.000001 
0.000000 0.000000 0.000000 -0.000000 0.000000 -0.000000 -0.118889 0.000000 -0.000000 0.000000 0.346238 -0.000000 -0.000000 0.000000 0.000000 -0.000000 0.000000 0.000000 -8.070969 0.000000 0.000000 -8.737146 0.000000 -0.000000 0.000000 -0.000000 -0.003205 -0.000000 0.000000 0.000000 8.452068 2.140218 14.118004 -0.000001 0.000000 0.517553 -0.000001 0.000000 -0.000001 -0.000001 0.000000 -0.000001 3.240202 0.478380 -2.634217 -22.198620 0.000000 0.000000 -0.000001 -0.000000 0.000000 -0.000000 0.000000 -0.737912 -0.000000 -0.000000 -1.559763 0.000000 0.000000 -0.000000 0.000000 0.000000 -1.486310 0.000000 0.000000 -0.000000 -0.000000 0.000000 0.000000 -0.000000 0.000000 0.000000 -0.000000 0.000000 0.000000 -0.000000 0.000000 0.000000 -0.000000 0.000000 0.000000 -11.838159 5.141140 -29.159672 0.000001 -0.000000 11.960781 0.000000 0.000000 -0.468619 -0.000000 0.000000 0.444157 0.000001 0.000000 -0.000001 -43.313665 6.131738 -21.208007 0.473714 -0.301833 0.592254 -0.000001 0.000000 -0.000000 
0.000000 0.000000 0.000000 -0.000000 0.000000 -0.000000 -0.178362 0.000000 -0.000000 -0.000000 0.528038 -0.000000 -0.000000 0.000000 -0.000000 -0.000000 0.000000 -0.000000 -7.997458 -0.000000 -0.000000 -9.042246 -0.000000 -0.000000 -0.000001 -0.000000 -0.003205 -0.000000 0.000000 -0.000000 8.451987 2.140782 14.125110 -0.000000 0.000000 0.797327 -0.000001 -0.000000 0.003494 -0.000000 -0.000000 0.000001 5.038256 0.615030 -4.092063 -22.198620 0.000000 -0.000001 0.000001 0.000000 -0.000000 -0.000000 -0.000000 -1.133081 -0.000000 -0.000000 -2.399146 -0.000000 0.000000 -0.000000 -0.000000 0.000000 -2.276763 -0.000000 -0.000000 0.000000 -0.000000 0.000000 -0.000000 -0.000000 0.000000 -0.000000 -0.000000 0.000000 -0.000000 -0.000000 0.000000 -0.000000 -0.000000 0.000000 -0.000000 -11.772802 5.260114 -28.891451 0.000000 -0.000000 11.974992 0.000000 0.000000 -0.713391 -0.000001 -0.000000 0.678441 -0.000001 0.000000 -0.000000 -42.820884 6.179696 -20.802960 0.731085 -0.459314 0.912209 -0.000000 -0.000001 -0.000000 
0.000000 0.000000 0.000000 -0.000000 0.000000 -0.000000 -0.241272 0.000000 -0.000000 0.000000 0.716942 -0.000000 -0.000000 -0.000000 -0.000000 -0.000000 -0.000000 -0.000000 -7.902807 -0.000000 -0.000000 -9.361614 -0.000000 0.000000 -0.000000 -0.000000 -0.003205 -0.000000 -0.000000 -0.000000 8.448408 2.141138 14.135838 -0.000001 0.000000 1.091141 -0.000001 -0.000000 0.006990 -0.000000 -0.000000 -0.000001 6.927364 0.662579 -5.623426 -22.198622 0.000000 0.000000 0.000002 -0.000000 0.000000 -0.000000 -0.000000 -1.545783 0.000000 0.000000 -3.263224 0.000000 -0.000000 0.000000 0.000000 -0.000000 -3.095348 -0.000000 -0.000000 -0.000000 -0.000000 -0.000000 -0.000000 -0.000000 -0.000000 -0.000000 -0.000000 -0.000000 -0.000000 -0.000000 -0.000000 -0.000000 -0.000000 -0.000000 -0.000000 -11.708574 5.378937 -28.616787 0.000000 0.000000 11.988855 -0.000000 0.000000 -0.965208 -0.000000 -0.000000 0.919714 -0.000000 0.000000 0.000001 -42.112665 6.081948 -20.330328 0.996492 -0.618721 1.246969 -0.000000 -0.000000 -0.000001 
0.000000 0.000000 0.000000 -0.000000 0.000000 -0.000000 -0.304241 0.000000 -0.000000 -0.000000 0.905732 -0.000000 -0.000000 -0.000000 -0.000000 -0.000000 -0.000000 -0.000000 -7.783573 0.000000 -0.000000 -9.681153 -0.000000 -0.000000 -0.000001 0.000000 -0.003205 -0.000000 -0.000000 -0.000000 8.447657 2.145292 14.145942 -0.000001 0.000000 1.391885 -0.000000 -0.000000 0.010485 0.000001 0.000000 0.000002 8.884287 0.606245 -7.207474 -22.198620 0.000000 -0.000001 0.000001 0.000000 0.000000 0.000000 -0.000000 -1.968970 0.000000 -0.000000 -4.148502 -0.000000 -0.000000 -0.000000 -0.000000 -0.000000 -3.938512 0.000000 -0.000000 -0.000001 -0.000000 -0.000000 -0.000000 -0.000000 -0.000000 -0.000000 -0.000000 -0.000000 -0.000000 -0.000000 -0.000000 -0.000000 -0.000000 -0.000000 -0.000000 -11.646773 5.505082 -28.337497 0.000000 -0.000000 12.010171 -0.000001 -0.000000 -1.224011 -0.000001 -0.000000 1.164538 -0.000000 -0.000001 0.000001 -41.200336 5.858746 -19.796316 1.273533 -0.783275 1.593104 -0.000002 0.000000 -0.000001 
0.000000 0.000000 0.000000 -0.000000 0.000000 -0.000000 -0.367209 0.000000 -0.000000 -0.000000 1.105121 -0.000000 0.000000 0.000000 0.000000 0.000000 0.000000 0.000000 -7.650246 0.000000 0.000000 -9.996965 -0.000000 -0.000000 -0.000000 0.000000 -0.003205 0.000000 0.000000 0.000000 8.447489 2.146427 14.160207 -0.000001 0.000000 1.706670 -0.000000 -0.000000 0.017471 -0.000000 0.000000 0.000001 10.884722 0.436809 -8.822157 -22.198620 -0.000000 0.000000 0.000001 0.000000 0.000000 0.000000 0.000000 -2.402642 0.000000 0.000000 -5.044492 -0.000000 -0.000000 0.000001 -0.000000 -0.000000 -4.802990 -0.000000 -0.000000 0.000000 0.000000 0.000000 0.000000 0.000000 0.000000 0.000000 0.000000 0.000000 0.000000 0.000000 0.000000 0.000000 0.000000 0.000000 0.000000 -11.584579 5.637475 -28.047571 0.000001 0.000000 12.031142 -0.000001 0.000001 -1.486310 -0.000000 -0.000000 1.412856 -0.000000 -0.000000 0.000000 -40.109258 5.535803 -19.199126 1.558656 -0.945936 1.950605 0.000001 0.000000 -0.000001 
0.000000 0.000000 0.000000 -0.000000 0.000000 -0.000000 -0.430119 0.000000 -0.000000 -0.000000 1.304453 -0.000000 0.000000 -0.000000 -0.000000 0.000000 -0.000000 -0.000000 -7.499559 -0.000000 -0.000000 -10.295248 0.000000 0.000000 0.000000 0.000000 -0.003205 0.000000 -0.000000 -0.000000 8.443565 2.147214 14.177655 -0.000000 0.000000 2.028385 -0.000000 -0.000000 0.020967 -0.000001 -0.000000 -0.000000 12.897469 0.155494 -10.445664 -22.198620 0.000000 0.000000 0.000000 -0.000000 0.000000 0.000000 -0.000000 -2.850408 0.000000 0.000000 -5.944210 -0.000000 0.000000 0.000001 -0.000000 0.000000 -5.688612 -0.000000 0.000000 -0.000002 0.000000 -0.000000 -0.000000 0.000000 -0.000000 -0.000000 0.000000 -0.000000 -0.000000 0.000000 -0.000000 -0.000000 0.000000 -0.000000 -0.000000 -11.526621 5.770414 -27.753541 0.000001 -0.000000 12.059216 0.000000 -0.000000 -1.755656 0.000000 0.000000 1.668166 0.000001 0.000000 0.000001 -38.855444 5.135135 -18.544365 1.851948 -1.110029 2.316107 -0.000000 0.000000 -0.000000 
0.000000 0.000000 0.000000 -0.000000 0.000000 -0.000000 -0.496582 0.000000 -0.000000 0.000000 1.510832 -0.000000 -0.000000 0.000000 -0.000000 -0.000000 0.000000 -0.000000 -7.338387 0.000000 0.000000 -10.572730 -0.000000 0.000000 -0.000000 -0.000000 -0.003205 -0.000000 0.000000 -0.000000 8.443389 2.148610 14.195473 -0.000001 0.000000 2.357262 -0.000001 0.000000 0.027960 -0.000000 0.000000 0.000000 14.902576 -0.238989 -12.060208 -22.198619 0.000000 -0.000000 0.000000 -0.000000 -0.000000 -0.000000 0.000000 -3.305222 0.000000 -0.000000 -6.844383 -0.000000 0.000000 -0.000000 -0.000000 0.000000 -6.588615 -0.000000 -0.000000 0.000002 -0.000000 0.000000 -0.000000 -0.000000 0.000000 -0.000000 -0.000000 0.000000 -0.000000 -0.000000 0.000000 -0.000000 -0.000000 0.000000 -0.000000 -11.468986 5.907086 -27.456700 0.000001 0.000000 12.090844 0.000001 0.000001 -2.028386 -0.000001 0.000000 1.930522 0.000000 -0.000000 0.000002 -37.462245 4.677998 -17.829082 2.153439 -1.271990 2.689582 -0.000001 -0.000000 -0.000001 
0.000000 0.000000 0.000000 -0.000000 0.000000 -0.000000 -0.563046 0.000000 -0.000000 -0.000000 1.717154 -0.000000 0.000000 0.000000 -0.000000 0.000000 0.000000 -0.000000 -7.166671 -0.000000 0.000000 -10.815206 -0.000000 -0.000000 0.000002 -0.000000 -0.003205 0.000000 0.000000 -0.000000 8.439043 2.153168 14.216303 -0.000000 -0.000000 2.692959 -0.000000 0.000000 0.034949 -0.000000 -0.000001 0.000000 16.871923 -0.743499 -13.640096 -22.198620 0.000000 0.000001 0.000000 0.000000 0.000002 0.000000 0.000000 -3.770578 -0.000000 0.000000 -7.734530 -0.000000 0.000000 -0.000001 -0.000000 0.000000 -7.506608 -0.000000 0.000000 -0.000002 0.000000 0.000000 -0.000000 0.000000 0.000000 -0.000000 0.000000 0.000000 -0.000000 0.000000 0.000000 -0.000000 0.000000 0.000000 -0.000000 -11.411066 6.049762 -27.148481 0.000001 -0.000000 12.126022 -0.000000 0.000001 -2.308276 0.000001 0.000000 2.196263 -0.000000 -0.000001 0.000001 -35.948843 4.182607 -17.060158 2.456115 -1.431922 3.067483 0.000002 0.000000 -0.000001 
0.000000 0.000000 0.000000 -0.000000 0.000000 -0.000000 -0.629509 0.000000 -0.000000 -0.000000 1.930524 -0.000000 0.000000 0.000000 -0.000000 0.000000 0.000000 -0.000000 -6.988136 0.000000 -0.000000 -11.015282 -0.000000 0.000000 0.000002 -0.000000 -0.003205 0.000000 0.000000 -0.000000 8.438597 2.154694 14.237291 0.000000 0.000000 3.032324 -0.000001 -0.000000 0.041940 -0.000001 0.000000 0.000001 18.783976 -1.340162 -15.170340 -22.198622 -0.000001 0.000002 -0.000000 -0.000000 0.000000 0.000000 0.000000 -4.239430 -0.000000 -0.000000 -8.603936 0.000000 0.000000 -0.000001 0.000000 0.000000 -8.432220 -0.000000 0.000000 -0.000001 0.000000 0.000000 -0.000000 0.000000 0.000000 -0.000000 0.000000 0.000000 -0.000000 0.000000 0.000000 -0.000000 0.000000 0.000000 -0.000000 -11.357284 6.193347 -26.840079 -0.000001 0.000000 12.164813 0.000001 0.000000 -2.591544 -0.000000 0.000000 2.462172 0.000001 -0.000000 -0.000001 -34.339387 3.675273 -16.244123 2.766917 -1.589480 3.453375 0.000002 0.000000 -0.000000 
